# xmcd CD database file
#
# Track frame offsets:
#	150
#	13221
#	24035
#	35528
#	47417
#	60850
#	73441
#	84005
#	97410
#	107586
#	119289
#	131552
#	144459
#	158090
#	169259
#	180347
#	193327
#	204462
#	215507
#	227859
#	239691
#	251027
#	263499
#	276441
#	289299
#	302275
#	314900
#	327859
#	340889
#
# Disc length: 4688 seconds
#
# Revision: 2
# Processed by: cddbd v1.4PL0 Copyright (c) Steve Scherf et al.
# Submitted via: CDex 1.40Beta8
#
DISCID=ad124e1d
DTITLE=Carl Perkins - Back On Top 03
DYEAR=1900
DGENRE=Country
TTITLE0=Help Me Dream
TTITLE1=Bless The Children
TTITLE2=You Tore My Heaven To Hell
TTITLE3=One More Loser Going Home
TTITLE4=Goin' To Memphis
TTITLE5=Lord I Sinned Again Last Night
TTITLE6=Just As Long
TTITLE7=(Let's Get) Dixiefried
TTITLE8=Honky Tonk Song
TTITLE9=Love Sweet Love
TTITLE10=Ruby Don't Take Your Love To Town
TTITLE11=Never Look Back
TTITLE12=Sunday Dinner
TTITLE13=Sing My Song
TTITLE14=I Want To Be Your Man
TTITLE15=You'll Always Be A Lady To Me
TTITLE16=Rise and Shine
TTITLE17=Mean, Mean Martha
TTITLE18=Low Class
TTITLE19=I Ain't Mad
TTITLE20=The E.P. Express
TTITLE21=Big Bad Blues
TTITLE22=Restless
TTITLE23=Honey Don't
TTITLE24=Turn Around
TTITLE25=That's Right
TTITLE26=Walk With Your Neighbor
TTITLE27=For Your Love
TTITLE28=Four Letter Word
EXTD=ID3G: 2
EXTT0=
EXTT1=
EXTT2=
EXTT3=
EXTT4=
EXTT5=
EXTT6=
EXTT7=
EXTT8=
EXTT9=
EXTT10=
EXTT11=
EXTT12=
EXTT13=
EXTT14=
EXTT15=
EXTT16=
EXTT17=
EXTT18=
EXTT19=
EXTT20=
EXTT21=
EXTT22=
EXTT23=
EXTT24=
EXTT25=
EXTT26=
EXTT27=
EXTT28=
PLAYORDER=
